inDegrees=no
num_controls=7
num_derivatives=13
num_iterations=141
num_multipliers=7
num_parameters=0
num_slacks=7
num_states=26
objective=0.477021
objective_accelerations=0.043857
objective_balance=0.003567
objective_effort=0.040334
objective_height=0.383592
objective_ligament=0.005671
solver_duration=1922.864535
status=Solve_Succeeded
success=true
DataType=double
version=3
OpenSimVersion=4.5
endheader
time	/jointset/ground_pelvis/pelvis_tilt/value	/jointset/ground_pelvis/pelvis_tx/value	/jointset/ground_pelvis/pelvis_ty/value	/jointset/hip_l/hip_flexion_l/value	/jointset/hip_l/hip_adduction_l/value	/jointset/hip_l/hip_rotation_l/value	/jointset/back/lumbar_extension/value	/jointset/patellofemoral_l/patellar_flexion_l/value	/jointset/knee_l/knee_flexion_l/value	/jointset/knee_l/knee_adduction_l/value	/jointset/knee_l/knee_rotation_l/value	/jointset/ankle_l/ankle_angle_l/value	/jointset/subtalar_l/subtalar_angle_l/value	/jointset/ground_pelvis/pelvis_tilt/speed	/jointset/ground_pelvis/pelvis_tx/speed	/jointset/ground_pelvis/pelvis_ty/speed	/jointset/hip_l/hip_flexion_l/speed	/jointset/hip_l/hip_adduction_l/speed	/jointset/hip_l/hip_rotation_l/speed	/jointset/back/lumbar_extension/speed	/jointset/patellofemoral_l/patellar_flexion_l/speed	/jointset/knee_l/knee_flexion_l/speed	/jointset/knee_l/knee_adduction_l/speed	/jointset/knee_l/knee_rotation_l/speed	/jointset/ankle_l/ankle_angle_l/speed	/jointset/subtalar_l/subtalar_angle_l/speed	/forceset/tau_hip_flexion_l	/forceset/tau_hip_adduction_l	/forceset/tau_hip_rotation_l	/forceset/tau_knee_flexion_l	/forceset/tau_ankle_angle_l	/forceset/tau_subtalar_angle_l	/forceset/tau_lumbar_extension	lambda_cid13_p0	lambda_cid13_p1	lambda_cid13_p2	lambda_cid13_p3	lambda_cid13_p4	lambda_cid13_p5	lambda_cid14_p0	/jointset/ground_pelvis/pelvis_tilt/accel	/jointset/ground_pelvis/pelvis_tx/accel	/jointset/ground_pelvis/pelvis_ty/accel	/jointset/hip_l/hip_flexion_l/accel	/jointset/hip_l/hip_adduction_l/accel	/jointset/hip_l/hip_rotation_l/accel	/jointset/back/lumbar_extension/accel	/jointset/patellofemoral_l/patellar_flexion_l/accel	/jointset/knee_l/knee_flexion_l/accel	/jointset/knee_l/knee_adduction_l/accel	/jointset/knee_l/knee_rotation_l/accel	/jointset/ankle_l/ankle_angle_l/accel	/jointset/subtalar_l/subtalar_angle_l/accel	gamma_cid13_p0	gamma_cid13_p1	gamma_cid13_p2	gamma_cid13_p3	gamma_cid13_p4	gamma_cid13_p5	gamma_cid14_p0
1	-0.1103815362589129	-0.05700353946432581	0.6842818810740279	1.320679955864728	-0.3290400795946101	0.07477906525688947	-0.9599300843881299	1.393234753802999	1.393234753803093	-0.07135853178508939	-0.1745178830886963	0.2800806054220385	0.0639301943430207	0.1024674988920669	0.02552237179448404	0.07172272805220721	-0.3028250169053284	-0.007638189727990734	-0.0676474275006179	-0.0003667221249849413	-0.1684229467717435	-0.1684229467717424	-0.002898796609874901	-3.477379617522799e-05	0.02243895490852194	0.0008675695852427514	-0.3752181143890051	0.01551583754647368	0.001324434533568002	-0.3715411737711588	0.03085734701333163	0.02815178038300111	0.4272075409599649	-41.21475963189769	-4.401206792071305	-0.4479230575646518	14.45498066513834	-800.4028616101341	-71.31315898929813	-0.04160585988731981	0.8360584390102219	-0.01372348499802538	1.54598378006221	-4.983893619125527	-0.1330757015282543	-1.717285041281069	0.05015794740446987	-5.032452725651533	-5.032452725651501	-0.319656310990818	-0.02549318264214259	-1.24305827814329	-0.6953417417628052	-8.911802602315756e-09	1.705551495572409e-08	7.3568484443545e-08	3.976851690486354e-09	-2.384712994997422e-08	1.28912270763381e-07	-1.882016453842087e-08
1.01	-0.109315364959962	-0.05674898179355526	0.6850760731262727	1.317403678549256	-0.3291222634711506	0.07401586595967878	-0.9599309237578117	1.391299656862689	1.391299656862758	-0.07140127900386034	-0.1745184761078643	0.2802430138001948	0.06390532999240893	0.1107732383117942	0.02539198434154122	0.08709248189792398	-0.3523797774624719	-0.008781235671254347	-0.0849827226815035	0.0001838767931733957	-0.218551828862949	-0.2185518288629507	-0.005626831536677477	-7.655332521778457e-05	0.01003537995713114	-0.005820342981669453	-0.3738520614678528	0.01562978040134281	0.001240554956229597	-0.3711481421069199	0.03084685877388315	0.02830315710417743	0.4262135731920115	-41.14204710544624	-4.496361078542978	-0.4137002881159594	14.32808121114064	-799.3919318589496	-71.39125310027292	-0.04164058528692612	0.828800984065498	-0.01227140087701939	1.528985587613167	-4.933669949517672	-0.1023256750083129	-1.740213753847889	0.05526516032401599	-4.996409169819624	-4.996409169819929	-0.2458158819931875	0.007595781568424467	-1.240107636688015	-0.6525158962378282	-1.333539412578529e-08	1.50464895482705e-08	1.018135201965815e-07	8.342914249939423e-09	-2.758410869965154e-08	1.506081093769112e-07	-2.452725465957313e-08
1.02	-0.1081659424086957	-0.05649564300240046	0.6860232655971309	1.313633373093114	-0.3292153591339749	0.07307960131117257	-0.959926706279513	1.388864610457673	1.388864610457715	-0.07147059433160242	-0.1745192636984105	0.280281166322227	0.06381418653971285	0.1191177493559941	0.0252785958713338	0.1023228117749384	-0.4016306450399871	-0.009820546985837028	-0.1022604977566214	0.0006446475634227696	-0.268412839712752	-0.268412839712757	-0.008212418402203343	-7.368807011147392e-05	-0.002412216316304765	-0.01238825083188141	-0.3724860085467043	0.01574372325621131	0.001156675378937799	-0.3707551104426905	0.03083637053442689	0.02845453382534874	0.4252196054240577	-41.08108900957697	-4.587796868711208	-0.3819670625071314	14.26139012585348	-798.5296468653563	-71.44330713436028	-0.041674845732119	0.8438127639047431	-0.01032368845098928	1.518098986321734	-4.923115023199832	-0.1123287757920748	-1.705781020127531	0.03219231782220978	-4.978878477371064	-4.978878477371084	-0.2911666987354818	-0.01656422581239917	-1.251862542552399	-0.6713407984228064	-2.151578990331586e-08	6.85697427296608e-09	1.349909652756751e-07	1.73452758210027e-08	-3.569635964514148e-08	1.703451373183475e-07	-3.145629984919468e-08
1.03	-0.1069333285475952	-0.05624308242804542	0.6871220795161648	1.30937215305131	-0.3293183589465526	0.07197111492820096	-0.9599163054383251	1.385932252038297	1.385932252038323	-0.07156537284924762	-0.174519778530857	0.2801949500408374	0.06365807958234083	0.1273679104273981	0.02526370727449027	0.1174185918797519	-0.4505576128727837	-0.01076702456959899	-0.1194048588835727	0.001622161129826117	-0.318019118956497	-0.3180191189564997	-0.01075005686703256	-2.411441384478459e-05	-0.01480566190040442	-0.01880421818002178	-0.37272511573641	0.01599701003279343	0.001037141301193745	-0.3699605610948368	0.03078501787861822	0.02871543938328639	0.4261582053524185	-41.07302101292085	-4.731056001797374	-0.3265335161162018	13.70260433566257	-798.7527506833658	-71.50236947081147	-0.041714982368334	0.8100482338067337	0.007462129672169816	1.50210167965061	-4.869129084686375	-0.083965479395684	-1.714005749094882	0.1585269366909272	-4.945536145384566	-4.945536145384083	-0.2360967660963805	0.01653156683559647	-1.229280009916336	-0.6224058172225079	-2.97345204181328e-08	-1.395607225479706e-09	1.682187410621775e-07	2.639494656565386e-08	-4.385325622528258e-08	1.900621773957829e-07	-3.839781396808632e-08
1.04	-0.1056193269847758	-0.05598976402466365	0.6883712080676638	1.304623335046899	-0.3294304551809115	0.07069213651593419	-0.9598905302490025	1.382505024126981	1.382505024126995	-0.07168573462068706	-0.1745196349456506	0.2799855604148915	0.0634386767286458	0.1353952897007536	0.02543016167667795	0.1323857382680515	-0.4991502375602596	-0.01163983134246452	-0.13635890361517	0.003719517121888038	-0.3673867381005835	-0.3673867381005832	-0.01332906916144533	5.799546199646588e-05	-0.02704688522760934	-0.02504743009667895	-0.3729642229261408	0.01625029680938629	0.0009176072235102871	-0.3691660117469884	0.03073366522281117	0.02897634494123824	0.4270968052807566	-41.07684780106445	-4.870500749851312	-0.2736862412178271	13.20232222435704	-799.1272001495455	-71.53606986713271	-0.04175351170081051	0.7992564042950143	0.02594491135522328	1.492372243018946	-4.856246394135647	-0.09759461361281427	-1.66771774105674	0.256160802953013	-4.93114645743939	-4.931146457439241	-0.2994414646522027	-0.01005698189755564	-1.221418091173522	-0.6367897121262349	-3.612057998522007e-08	-1.42526102716512e-08	1.933310879075942e-07	3.117127731701463e-08	-5.202325780376668e-08	1.974688624524904e-07	-4.381700484228477e-08
1.05	-0.1042257698281994	-0.05573384268406107	0.6897694231651458	1.299389710244776	-0.3295508919433264	0.06924449520432613	-0.9598386219785991	1.37858516755058	1.378585167550567	-0.07183205872849407	-0.1745185226828948	0.2796545273293144	0.06315774911868463	0.1433192387804447	0.02578763053173441	0.1472419083248709	-0.5475757977371646	-0.01243327991915638	-0.1531498856174824	0.006804653897123657	-0.4165601966874784	-0.4165601966874792	-0.01593485358742042	0.0001672496696325855	-0.03913341458511136	-0.03110483788850459	-0.3730887331590557	0.01656702680923888	0.0007633327016220155	-0.3682008952661273	0.03078605399277394	0.02929677161889458	0.4279522462764991	-41.03243414910317	-5.051204676614223	-0.2063080063535482	12.61712950793939	-799.3504706381491	-71.61127295590072	-0.04180574093715753	0.7894255776947896	0.04568369542389898	1.479921330222736	-4.835877003484155	-0.06810639512187314	-1.681907447029933	0.3560676546721545	-4.906778593586497	-4.906778593586677	-0.2410374792644188	0.0218843010250872	-1.198325626122966	-0.5852493250314604	-4.244936858519081e-08	-2.72535014911891e-08	2.181898275986021e-07	3.581406619358511e-08	-6.0193668913449e-08	2.044908489148002e-07	-4.918862311508657e-08
